<svg id="SvgjsSvg1199" width="288" height="288" xmlns="http://www.w3.org/2000/svg" version="1.1" xmlns:xlink="http://www.w3.org/1999/xlink" xmlns:svgjs="http://svgjs.com/svgjs"><defs id="SvgjsDefs1200"></defs><g id="SvgjsG1201"><svg xmlns="http://www.w3.org/2000/svg" viewBox="0 0 24 24" width="288" height="288"><g data-name="Layer 2" fill="#7ab757" class="color000 svgShape"><path d="M9 3H5a2 2 0 0 0-2 2v4a2 2 0 0 0 2 2h4a2 2 0 0 0 2-2V5a2 2 0 0 0-2-2zM5 9V5h4v4zm14-6h-4a2 2 0 0 0-2 2v4a2 2 0 0 0 2 2h4a2 2 0 0 0 2-2V5a2 2 0 0 0-2-2zm-4 6V5h4v4zm-6 4H5a2 2 0 0 0-2 2v4a2 2 0 0 0 2 2h4a2 2 0 0 0 2-2v-4a2 2 0 0 0-2-2zm-4 6v-4h4v4zm14-6h-4a2 2 0 0 0-2 2v4a2 2 0 0 0 2 2h4a2 2 0 0 0 2-2v-4a2 2 0 0 0-2-2zm-4 6v-4h4v4z" data-name="grid" fill="#7ab757" class="color000 svgShape"></path></g></svg></g></svg>