<svg id="SvgjsSvg1281" width="288" height="288" xmlns="http://www.w3.org/2000/svg" version="1.1" xmlns:xlink="http://www.w3.org/1999/xlink" xmlns:svgjs="http://svgjs.com/svgjs"><defs id="SvgjsDefs1282"></defs><g id="SvgjsG1283"><svg xmlns="http://www.w3.org/2000/svg" viewBox="0 0 47.5 47.5" width="288" height="288"><defs><clipPath id="a"><path d="M0 38h38V0H0v38Z" fill="#000000" class="color000 svgShape"></path></clipPath></defs><g clip-path="url(#a)" transform="matrix(1.25 0 0 -1.25 0 47.5)" fill="#000000" class="color000 svgShape"><path fill="#7ab757" d="M20.32 11.642c-.113 0-.217-.003-.32-.005v.415c4.804.479 8.548 4.264 8.548 7.301 0 3.249 0-1.47-9.562-1.47-9.558 0-9.558 4.719-9.558 1.47 0-3.043 3.757-6.838 8.572-7.305v-.411c-.104.002-.207.005-.321.005-2.553 0-6.603 2.05-6.603 1.32 0-.645 4.186-4.016 6.924-4.796V2a1 1 0 1 1 2 0v6.166c2.738.78 6.924 4.151 6.924 4.796 0 .73-4.05-1.32-6.604-1.32" class="color3e721d svgShape"></path><path fill="#a0041e" d="M27.527 29.647c-3.887 4.412 1.506 5.882-2.592 5.882-.713 0-1.921-.44-3.29-1.189C20.951 35.912 20.023 37 19 37c-2.051 0-3.726-4.342-3.873-8.27-1.109-1.542-1.855-3.234-1.855-4.965 0-6.092 2.59-8.824 6.479-8.824 7.776 0 13.643 8.048 7.776 14.706" class="colora0041e svgShape"></path><path fill="#be1931" d="M24.727 23.765c0-6.092-2.59-8.823-6.479-8.823-7.776 0-13.644 8.048-7.776 14.705 3.888 4.412-1.506 5.883 2.592 5.883 2.592 0 11.663-5.674 11.663-11.765" class="colorbe1931 svgShape"></path></g></svg></g></svg>